<svg width="200" height="150" viewBox="0 0 200 150" fill="none" xmlns="http://www.w3.org/2000/svg">
  <!-- Car Body -->
  <path d="M40 80 L50 50 L150 50 L160 80 L180 80 C190 80 190 90 180 90 L170 90 C170 105 150 105 150 90 L50 90 C50 105 30 105 30 90 L20 90 C10 90 10 80 20 80 L40 80 Z" fill="#147A31"/>

  <!-- Windows -->
  <path d="M60 50 L70 30 L130 30 L140 50" fill="#147A31"/>
  <path d="M70 30 L70 50" stroke="white" stroke-width="1.5"/>
  <path d="M130 30 L130 50" stroke="white" stroke-width="1.5"/>
  <path d="M100 30 L100 50" stroke="white" stroke-width="1.5"/>

  <!-- Headlights -->
  <circle cx="50" cy="75" r="5" fill="white"/>
  <circle cx="150" cy="75" r="5" fill="white"/>

  <!-- Wheels -->
  <circle cx="40" cy="90" r="15" fill="#0B5A20" stroke="white" stroke-width="1.5"/>
  <circle cx="40" cy="90" r="5" fill="#147A31"/>
  <circle cx="160" cy="90" r="15" fill="#0B5A20" stroke="white" stroke-width="1.5"/>
  <circle cx="160" cy="90" r="5" fill="#147A31"/>

  <!-- Details -->
  <rect x="90" y="75" width="20" height="5" rx="2" fill="white"/>
  <path d="M55 65 L145 65" stroke="white" stroke-width="1.5"/>
</svg>
