<svg width="400" height="500" viewBox="0 0 400 500" fill="none" xmlns="http://www.w3.org/2000/svg">
  <!-- Head -->
  <circle cx="200" cy="100" r="50" fill="#fff" stroke="#1F8A70" stroke-width="4"/>

  <!-- Hair -->
  <path d="M170 70 Q200 40 230 70" stroke="#1F8A70" stroke-width="4" fill="#1F8A70"/>

  <!-- Face elements -->
  <circle cx="185" cy="90" r="5" fill="#1F8A70"/> <!-- Left eye -->
  <circle cx="215" cy="90" r="5" fill="#1F8A70"/> <!-- Right eye -->
  <path d="M190 110 Q200 120 210 110" stroke="#1F8A70" stroke-width="3" fill="none"/> <!-- Smile -->

  <!-- Headphones -->
  <path d="M150 90 L140 90 L140 120 L155 120" stroke="#1F8A70" stroke-width="4" fill="none"/>
  <path d="M250 90 L260 90 L260 120 L245 120" stroke="#1F8A70" stroke-width="4" fill="none"/>
  <path d="M150 85 Q200 30 250 85" stroke="#1F8A70" stroke-width="4" fill="none"/>

  <!-- Body -->
  <rect x="170" y="150" width="60" height="150" fill="#fff" stroke="#1F8A70" stroke-width="4"/>

  <!-- Arms -->
  <path d="M170 170 L120 240 L100 220" stroke="#1F8A70" stroke-width="4" fill="#fff"/> <!-- Left arm -->
  <path d="M230 170 L280 180 L290 140" stroke="#1F8A70" stroke-width="4" fill="#fff"/> <!-- Right arm raised -->

  <!-- Laptop -->
  <rect x="100" y="200" width="100" height="70" fill="#fff" stroke="#1F8A70" stroke-width="4"/> <!-- Laptop base -->
  <rect x="100" y="140" width="100" height="60" fill="#fff" stroke="#1F8A70" stroke-width="4"/> <!-- Laptop screen -->
  <circle cx="150" cy="170" r="10" fill="#1F8A70"/> <!-- Screen element -->

  <!-- Legs -->
  <path d="M180 300 L160 400" stroke="#1F8A70" stroke-width="4" fill="none"/> <!-- Left leg -->
  <path d="M220 300 L240 400" stroke="#1F8A70" stroke-width="4" fill="none"/> <!-- Right leg -->

  <!-- Feet -->
  <path d="M160 400 L140 400" stroke="#1F8A70" stroke-width="4" fill="none"/> <!-- Left foot -->
  <path d="M240 400 L260 400" stroke="#1F8A70" stroke-width="4" fill="none"/> <!-- Right foot -->
</svg>
