<svg xmlns="http://www.w3.org/2000/svg" width="500" height="300" viewBox="0 0 500 300" fill="none">
  <!-- Government Building -->
  <rect x="250" y="150" width="160" height="100" fill="#f0fdf4" stroke="#16a34a" stroke-width="2" />

  <!-- Government Building Dome -->
  <path d="M330 150 C330 120 290 120 290 150" fill="#f0fdf4" stroke="#16a34a" stroke-width="2" />
  <circle cx="310" cy="120" r="10" fill="#16a34a" />

  <!-- Building Flag -->
  <line x1="310" y1="110" x2="310" y2="80" stroke="#16a34a" stroke-width="2" />
  <path d="M310 80 L335 90 L310 100 Z" fill="#16a34a" />

  <!-- Building Columns -->
  <rect x="270" y="150" width="10" height="100" fill="none" stroke="#16a34a" stroke-width="1" />
  <rect x="300" y="150" width="10" height="100" fill="none" stroke="#16a34a" stroke-width="1" />
  <rect x="330" y="150" width="10" height="100" fill="none" stroke="#16a34a" stroke-width="1" />
  <rect x="360" y="150" width="10" height="100" fill="none" stroke="#16a34a" stroke-width="1" />

  <!-- Building Steps -->
  <rect x="270" y="250" width="120" height="10" fill="#f0fdf4" stroke="#16a34a" stroke-width="1" />
  <rect x="280" y="260" width="100" height="10" fill="#f0fdf4" stroke="#16a34a" stroke-width="1" />
  <rect x="290" y="270" width="80" height="10" fill="#f0fdf4" stroke="#16a34a" stroke-width="1" />

  <!-- Person with document -->
  <circle cx="150" cy="220" r="25" fill="#16a34a" />
  <rect x="140" y="245" width="20" height="50" fill="#16a34a" />
  <rect x="135" y="265" width="30" height="10" fill="#16a34a" />
  <rect x="125" y="255" width="10" height="30" fill="#16a34a" />
  <rect x="165" y="255" width="10" height="30" fill="#16a34a" />

  <!-- Document in hand -->
  <rect x="175" y="240" width="30" height="40" rx="2" fill="white" stroke="#16a34a" stroke-width="2" />
  <line x1="180" y1="250" x2="200" y2="250" stroke="#16a34a" stroke-width="2" />
  <line x1="180" y1="260" x2="200" y2="260" stroke="#16a34a" stroke-width="2" />
  <line x1="180" y1="270" x2="195" y2="270" stroke="#16a34a" stroke-width="2" />

  <!-- Connection line between person and building -->
  <path d="M205 240 Q230 220 250 220" stroke="#16a34a" stroke-width="2" stroke-dasharray="5,5" />

  <!-- Document coming from building -->
  <rect x="220" y="180" width="30" height="40" rx="2" fill="white" stroke="#16a34a" stroke-width="2" />
  <line x1="225" y1="190" x2="245" y2="190" stroke="#16a34a" stroke-width="2" />
  <line x1="225" y1="200" x2="245" y2="200" stroke="#16a34a" stroke-width="2" />
  <line x1="225" y1="210" x2="240" y2="210" stroke="#16a34a" stroke-width="2" />

  <!-- Document path animation -->
  <path d="M250 190 Q235 195 220 200" stroke="#16a34a" stroke-width="2" stroke-dasharray="5,5" />
</svg>
