<svg xmlns="http://www.w3.org/2000/svg" width="400" height="400" viewBox="0 0 400 400" fill="none">
  <!-- Character base -->
  <path d="M200 150 Q260 150 270 220 Q275 260 250 300 Q230 330 200 340 Q170 330 150 300 Q125 260 130 220 Q140 150 200 150" fill="#15803d" />

  <!-- Head -->
  <circle cx="200" cy="130" r="50" fill="#FFF" stroke="#15803d" stroke-width="2" />

  <!-- Hair -->
  <path d="M160 120 Q170 80 200 80 Q230 80 240 120" fill="#15803d" />
  <path d="M165 120 Q175 95 185 120" fill="#FFF" />
  <path d="M215 120 Q225 95 235 120" fill="#FFF" />

  <!-- Eyes -->
  <circle cx="180" cy="130" r="5" fill="#333" />
  <circle cx="220" cy="130" r="5" fill="#333" />

  <!-- Eyebrows -->
  <path d="M170 120 L190 120" stroke="#333" stroke-width="2" />
  <path d="M210 120 L230 120" stroke="#333" stroke-width="2" />

  <!-- Nose -->
  <path d="M195 135 Q200 145 205 135" stroke="#333" stroke-width="2" fill="none" />

  <!-- Mouth -->
  <path d="M185 155 Q200 165 215 155" stroke="#333" stroke-width="2" fill="none" />

  <!-- Beard -->
  <path d="M180 160 Q200 180 220 160 Q220 190 200 195 Q180 190 180 160" fill="#15803d" />

  <!-- Arms -->
  <rect x="130" y="220" width="20" height="80" rx="10" fill="#15803d" />
  <rect x="250" y="220" width="20" height="80" rx="10" fill="#15803d" />

  <!-- Hands -->
  <circle cx="140" cy="305" r="12" fill="#FFF" />
  <circle cx="260" cy="305" r="12" fill="#FFF" />

  <!-- Document -->
  <rect x="160" y="240" width="80" height="100" rx="5" fill="#FFF" stroke="#333" stroke-width="2" />
  <line x1="170" y1="260" x2="230" y2="260" stroke="#333" stroke-width="1" />
  <line x1="170" y1="280" x2="230" y2="280" stroke="#333" stroke-width="1" />
  <line x1="170" y1="300" x2="230" y2="300" stroke="#333" stroke-width="1" />
  <line x1="170" y1="320" x2="210" y2="320" stroke="#333" stroke-width="1" />
</svg>
